Coordinates
version=1
nRows=9
nColumns=36
inDegrees=yes

Units are S.I. units (second, meters, Newtons, ...)
If the header above contains a line with 'inDegrees', this indicates whether rotational values are in degrees (yes) or radians (no).

endheader
time	pelvis_tilt	pelvis_list	pelvis_rotation	pelvis_tx	pelvis_ty	pelvis_tz	hip_flexion_r	hip_adduction_r	hip_rotation_r	knee_angle_r	knee_angle_r_beta	ankle_angle_r	subtalar_angle_r	mtp_angle_r	hip_flexion_l	hip_adduction_l	hip_rotation_l	knee_angle_l	knee_angle_l_beta	ankle_angle_l	subtalar_angle_l	mtp_angle_l	lumbar_extension	lumbar_bending	lumbar_rotation	arm_flex_r	arm_add_r	arm_rot_r	elbow_flex_r	pro_sup_r	arm_flex_l	arm_add_l	arm_rot_l	elbow_flex_l	pro_sup_l
      1.50000000	     -9.99268360	     -2.50669629	     -4.59584398	     -0.48629942	      1.30677351	     -0.57419534	     32.14153715	     -2.09187211	      4.24340297	     21.61499567	      0.37725284	    -15.53044179	     -0.83190764	     -7.04049308	     30.26329679	    -14.46620194	    -16.19795488	     14.61862397	      0.25514312	    -31.37100054	     -1.57350164	     -7.04049308	    -19.79415730	     -1.67940790	     -3.85387725	    -68.73760350	    -26.01641577	    -36.68288955	    125.57367644	    112.40750081	    -40.88562685	    -44.35403829	    -30.41342068	    135.41910247	    107.53220781
      1.51000000	     -9.70854836	     -2.58686216	     -4.76044698	     -0.47581292	      1.28365873	     -0.57400111	     32.16712769	     -2.03309076	      4.24459539	     21.52781549	      0.37573126	    -14.62547755	     -1.19955001	     -7.05066282	     30.26954991	    -14.71837570	    -16.19954586	     14.41487007	      0.25158694	    -31.46982040	     -1.98691459	     -7.05066282	    -19.99104322	     -1.61178528	     -4.06020968	    -68.56032598	    -24.76052736	    -36.26600055	    125.69360823	    112.23768950	    -41.48262474	    -43.17709032	    -29.97783147	    135.66075977	    107.36738667
      1.52000000	     -9.43896260	     -2.59184922	     -4.92315088	     -0.46554748	      1.25964365	     -0.57376577	     32.33166806	     -2.08919738	      4.01176928	     21.61323083	      0.37722204	    -13.97919525	     -1.40086944	     -7.07048717	     30.41151629	    -14.88395587	    -16.00052041	     14.60531128	      0.25491077	    -31.94832294	     -3.34385105	     -7.07048717	    -20.21723104	     -1.68064125	     -4.47897586	    -67.78509161	    -23.71305233	    -35.59888532	    125.68881785	    112.65789332	    -42.07740487	    -41.81243451	    -29.73644888	    135.94317021	    107.47495071
      1.53000000	     -9.14993190	     -2.58498137	     -5.09481533	     -0.45557538	      1.23463846	     -0.57335194	     32.55788697	     -2.13649322	      3.76439476	     21.86445808	      0.38160678	    -13.65528345	     -1.79022783	     -7.09153472	     30.78837264	    -15.13587598	    -15.95968629	     15.53952578	      0.27121589	    -31.89879357	     -4.53975430	     -7.09153472	    -20.51378050	     -1.80794546	     -4.83948587	    -66.65266697	    -22.57720320	    -34.70601297	    125.65088742	    112.95300020	    -42.33408426	    -40.49653122	    -29.37362010	    136.15261591	    107.46123774
      1.54000000	     -8.82780833	     -2.48198932	     -5.23064056	     -0.44577147	      1.20870535	     -0.57309839	     32.82831173	     -2.32215603	      3.43258880	     22.27608353	      0.38879100	    -13.81938027	     -1.96817340	     -7.10948314	     31.26238567	    -15.24534393	    -15.79594222	     16.72348166	      0.29187982	    -32.59864582	     -5.85370747	     -7.10948314	    -20.88413441	     -2.03336780	     -5.24349697	    -65.15993147	    -21.43759498	    -33.83358606	    125.69353821	    112.94363383	    -42.13063538	    -39.26711115	    -28.79930135	    136.40754290	    107.42984840
      1.55000000	     -8.54368493	     -2.33543867	     -5.31638159	     -0.43624285	      1.18197464	     -0.57308959	     33.32491439	     -2.62089424	      2.86701691	     22.94132923	      0.40040173	    -15.30584630	     -2.28847035	     -7.12924444	     31.90059326	    -15.21202990	    -14.96442503	     18.10827942	      0.31604910	    -34.20020376	     -7.57743234	     -7.12924444	    -21.23675654	     -2.24997338	     -5.59620430	    -63.08214286	    -20.16943889	    -32.97349178	    125.52428469	    112.32071906	    -41.56962171	    -38.11135549	    -27.86335109	    136.23533732	    107.34516081
      1.56000000	     -8.51586214	     -2.13767784	     -5.23801241	     -0.42756841	      1.15429259	     -0.57329108	     34.25140553	     -3.00188369	      2.40567441	     23.99283926	      0.41875404	    -16.93673460	     -3.42425547	     -7.15885532	     33.21108127	    -15.07972873	    -13.41342943	     20.98958998	      0.36633745	    -32.44944032	    -10.08106832	     -7.15885532	    -21.37090247	     -2.43375862	     -6.00444141	    -60.60789981	    -18.85498164	    -31.84700732	    125.19631263	    110.99665243	    -40.37728934	    -37.20007510	    -26.60939686	    135.99772305	    106.95465825
      1.57000000	     -8.64098717	     -2.12549350	     -5.18144588	     -0.41966848	      1.12534936	     -0.57325645	     35.64614747	     -3.09718051	      2.17828259	     26.74418634	      0.46677411	    -13.69982681	     -5.53048671	     -7.21208086	     35.42376275	    -15.30335540	    -11.52435479	     27.20191512	      0.47476298	    -21.39973268	    -11.96118482	     -7.21208086	    -21.38407692	     -2.42913088	     -6.15866726	    -57.80885086	    -17.40544333	    -30.48258425	    124.64346188	    109.71658955	    -38.69657193	    -36.47817277	    -25.07973373	    135.60445955	    106.47101099
      1.58000000	     -8.91031421	     -2.22210994	     -5.19121894	     -0.41273645	      1.09522788	     -0.57317435	     37.84918123	     -2.97433162	      2.19440960	     32.12468870	      0.56068159	     -3.68491345	     -7.30004484	     -7.25662364	     38.22242988	    -15.62870078	     -9.36398873	     35.00880977	      0.61101900	     -7.20131483	    -13.05846590	     -7.25662364	    -21.31349911	     -2.30381431	     -6.06212766	    -54.64058266	    -15.93164563	    -29.12303030	    124.14962269	    107.09426549	    -36.41107591	    -35.94982926	    -23.09691752	    135.26158461	    104.40705752
